<svg xmlns="http://www.w3.org/2000/svg" width="1920.46" height="1007.965" viewBox="0 0 1920.46 1007.965"><defs><style>.a,.e{fill:none}.a,.b{stroke-width:2px}.a,.b,.c{stroke:#fff}.a{stroke-miterlimit:10}.b,.c{fill:#b2d9ea}.c{stroke-width:1.5px}.d{stroke:none}</style></defs><g transform="translate(-0.222 -149.503)"><line x2="1769" y2="461" class="a" transform="translate(0.5 695.5)"/><line x2="1912" y2="352" class="a" transform="translate(8.5 468.5)"/><line x2="1920" y2="275" class="a" transform="translate(0.5 340.5)"/><line x2="1920" y2="240" class="a" transform="translate(0.5 256.5)"/><line x2="1919" y2="191" class="a" transform="translate(1 194)"/><line x2="1920" y2="139" class="a" transform="translate(0.5 150.5)"/><line x2="408.818" y1="753.778" class="a" transform="translate(1269.682 274.5)"/><line x2="805.152" y1="617.642" class="a" transform="translate(672.348 256.5)"/><line x2="1131.969" y1="487.768" class="a" transform="translate(91.531 236.5)"/><line x2="1014" y1="294" class="a" transform="translate(0.5 221.5)"/><line x2="830" y1="187" class="a" transform="translate(0.5 210.5)"/><line x2="633" y1="111" class="a" transform="translate(0.5 197.5)"/><line x2="52.459" y1="874.632" class="a" transform="translate(1769.041 282.5)"/><g class="b" transform="translate(1253.368 1003.635) rotate(9)"><ellipse cx="24.5" cy="17" class="d" rx="24.5" ry="17"/><ellipse cx="24.5" cy="17" class="e" rx="23.5" ry="16"/></g><g class="b" transform="matrix(0.998, 0.07, -0.07, 0.998, 653.826, 851.61)"><ellipse cx="24.5" cy="15.5" class="d" rx="24.5" ry="15.5"/><ellipse cx="24.5" cy="15.5" class="e" rx="23.5" ry="14.5"/></g><g class="b" transform="matrix(0.998, 0.07, -0.07, 0.998, 901.43, 361.229)"><ellipse cx="14" cy="8" class="d" rx="14" ry="8"/><ellipse cx="14" cy="8" class="e" rx="13" ry="7"/></g><g class="b" transform="translate(1412.809 715.683) rotate(7)"><ellipse cx="18.5" cy="11.5" class="d" rx="18.5" ry="11.5"/><ellipse cx="18.5" cy="11.5" class="e" rx="17.5" ry="10.5"/></g><g class="b" transform="translate(1772.809 782.683) rotate(7)"><ellipse cx="18.5" cy="11.5" class="d" rx="18.5" ry="11.5"/><ellipse cx="18.5" cy="11.5" class="e" rx="17.5" ry="10.5"/></g><g class="b" transform="translate(1509.787 547.048) rotate(7)"><ellipse cx="15.5" cy="9.5" class="d" rx="15.5" ry="9.5"/><ellipse cx="15.5" cy="9.5" class="e" rx="14.5" ry="8.5"/></g><g class="b" transform="matrix(1, 0.017, -0.017, 1, 723.682, 436.597)"><ellipse cx="15.5" cy="9.5" class="d" rx="15.5" ry="9.5"/><ellipse cx="15.5" cy="9.5" class="e" rx="14.5" ry="8.5"/></g><g class="b" transform="matrix(1, 0.017, -0.017, 1, 394.682, 387.597)"><ellipse cx="15.5" cy="9.5" class="d" rx="15.5" ry="9.5"/><ellipse cx="15.5" cy="9.5" class="e" rx="14.5" ry="8.5"/></g><g class="b" transform="matrix(1, 0.017, -0.017, 1, 610.682, 326.632)"><ellipse cx="13.5" cy="7.5" class="d" rx="13.5" ry="7.5"/><ellipse cx="13.5" cy="7.5" class="e" rx="12.5" ry="6.5"/></g><g class="b" transform="matrix(1, 0.017, -0.017, 1, 385.682, 300.632)"><ellipse cx="13.5" cy="7.5" class="d" rx="13.5" ry="7.5"/><ellipse cx="13.5" cy="7.5" class="e" rx="12.5" ry="6.5"/></g><g class="b" transform="matrix(1, 0.017, -0.017, 1, 953.474, 632.495)"><ellipse cx="19" cy="12" class="d" rx="19" ry="12"/><ellipse cx="19" cy="12" class="e" rx="18" ry="11"/></g><g class="b" transform="matrix(1, 0.017, -0.017, 1, 465.474, 545.495)"><ellipse cx="19" cy="12" class="d" rx="19" ry="12"/><ellipse cx="19" cy="12" class="e" rx="18" ry="11"/></g><g class="b" transform="matrix(0.998, 0.07, -0.07, 0.998, 1063.43, 292.229)"><ellipse cx="14" cy="7.5" class="d" rx="14" ry="7.5"/><ellipse cx="14" cy="7.5" class="e" rx="13" ry="6.5"/></g><g class="b" transform="matrix(0.998, 0.07, -0.07, 0.998, 813.43, 267.229)"><ellipse cx="14" cy="8" class="d" rx="14" ry="8"/><ellipse cx="14" cy="8" class="e" rx="13" ry="7"/></g><g class="b" transform="matrix(0.998, 0.07, -0.07, 0.998, 619.428, 247.298)"><ellipse cx="13" cy="7.5" class="d" rx="13" ry="7.5"/><ellipse cx="13" cy="7.5" class="e" rx="12" ry="6.5"/></g><g class="b" transform="matrix(0.998, 0.07, -0.07, 0.998, 403.43, 226.229)"><ellipse cx="14" cy="8" class="d" rx="14" ry="8"/><ellipse cx="14" cy="8" class="e" rx="13" ry="7"/></g><g class="b" transform="matrix(0.998, 0.07, -0.07, 0.998, 1258.43, 406.229)"><ellipse cx="14" cy="8" class="d" rx="14" ry="8"/><ellipse cx="14" cy="8" class="e" rx="13" ry="7"/></g><g class="b" transform="matrix(0.998, 0.07, -0.07, 0.998, 1568.43, 444.229)"><ellipse cx="14" cy="8" class="d" rx="14" ry="8"/><ellipse cx="14" cy="8" class="e" rx="13" ry="7"/></g><g class="b" transform="matrix(0.998, 0.07, -0.07, 0.998, 1796.43, 473.229)"><ellipse cx="14" cy="8" class="d" rx="14" ry="8"/><ellipse cx="14" cy="8" class="e" rx="13" ry="7"/></g><g class="b" transform="translate(1788.787 587.048) rotate(7)"><ellipse cx="15.5" cy="9.5" class="d" rx="15.5" ry="9.5"/><ellipse cx="15.5" cy="9.5" class="e" rx="14.5" ry="8.5"/></g><g class="b" transform="matrix(0.998, 0.07, -0.07, 0.998, 1365.43, 323.229)"><ellipse cx="14" cy="7.5" class="d" rx="14" ry="7.5"/><ellipse cx="14" cy="7.5" class="e" rx="13" ry="6.5"/></g><g class="b" transform="matrix(0.998, 0.07, -0.07, 0.998, 1621.43, 347.229)"><ellipse cx="14" cy="7.5" class="d" rx="14" ry="7.5"/><ellipse cx="14" cy="7.5" class="e" rx="13" ry="6.5"/></g><g class="c" transform="matrix(0.998, 0.07, -0.07, 0.998, 1669.428, 265.298)"><ellipse cx="11" cy="6" class="d" rx="11" ry="6"/><ellipse cx="11" cy="6" class="e" rx="10.25" ry="5.25"/></g><g class="c" transform="matrix(0.998, 0.07, -0.07, 0.998, 1465.428, 250.298)"><ellipse cx="11" cy="6" class="d" rx="11" ry="6"/><ellipse cx="11" cy="6" class="e" rx="10.25" ry="5.25"/></g><g class="c" transform="matrix(0.998, 0.07, -0.07, 0.998, 1205.428, 232.298)"><ellipse cx="11" cy="6" class="d" rx="11" ry="6"/><ellipse cx="11" cy="6" class="e" rx="10.25" ry="5.25"/></g><g class="c" transform="matrix(0.998, 0.07, -0.07, 0.998, 997.428, 217.298)"><ellipse cx="11" cy="6" class="d" rx="11" ry="6"/><ellipse cx="11" cy="6" class="e" rx="10.25" ry="5.25"/></g><g class="c" transform="matrix(0.998, 0.07, -0.07, 0.998, 814.428, 203.298)"><ellipse cx="11" cy="6" class="d" rx="11" ry="6"/><ellipse cx="11" cy="6" class="e" rx="10.25" ry="5.25"/></g><g class="b" transform="matrix(0.999, 0.052, -0.052, 0.999, 1137.646, 494.576)"><ellipse cx="16" cy="9.5" class="d" rx="16" ry="9.5"/><ellipse cx="16" cy="9.5" class="e" rx="15" ry="8.5"/></g><g class="b" transform="matrix(0.998, 0.07, -0.07, 0.998, 1802.43, 367.229)"><ellipse cx="14" cy="7.5" class="d" rx="14" ry="7.5"/><ellipse cx="14" cy="7.5" class="e" rx="13" ry="6.5"/></g><g class="c" transform="matrix(0.998, 0.07, -0.07, 0.998, 1811.428, 276.298)"><ellipse cx="11" cy="6" class="d" rx="11" ry="6"/><ellipse cx="11" cy="6" class="e" rx="10.25" ry="5.25"/></g><g class="c" transform="matrix(0.998, 0.07, -0.07, 0.998, 617.428, 190.298)"><ellipse cx="11" cy="6" class="d" rx="11" ry="6"/><ellipse cx="11" cy="6" class="e" rx="10.25" ry="5.25"/></g></g></svg>